<?xml version="1.0"?>
<svg xmlns:rdf="http://www.w3.org/1999/02/22-rdf-syntax-ns#" xmlns="http://www.w3.org/2000/svg" xmlns:cc="http://creativecommons.org/ns#" xmlns:xlink="http://www.w3.org/1999/xlink" xmlns:dc="http://purl.org/dc/elements/1.1/" xmlns:svg="http://www.w3.org/2000/svg" id="svg2" viewBox="0 0 30 30" version="1.0">
  <defs id="defs4">
    <linearGradient id="linearGradient2404" y2="24.808" gradientUnits="userSpaceOnUse" x2="15" gradientTransform="translate(0 -.48661)" y1="6.9062" x1="15">
      <stop id="stop2412" stop-color="#fff" offset="0"/>
      <stop id="stop2414" stop-color="#6294cb" offset="1"/>
    </linearGradient>
  </defs>
  <g id="layer1">
    <rect id="rect3465" ry="0" height="0" width="6" y="11" x="16" fill="#427bc3"/>
    <path id="path2408" d="m9.625 4.4062c-4.423 0-8.2188 3.4159-8.2188 8.2188 0 2.566 1.4142 4.564 3.0938 5.813 1.6796 1.248 3.6322 1.889 5.2812 2.124l5.2188 0.75c-0.14 0.21-0.204 0.374-0.375 0.594-0.795 1.022-1.75 1.969-1.75 1.969-0.548 0.577-0.587 1.47-0.091 2.092s1.375 0.783 2.06 0.377l8.281-5.25h0.031c1.398-0.9 2.69-1.807 3.719-3.032 1.029-1.224 1.719-2.831 1.719-4.687 0-2.16-0.914-4.3024-2.406-6-1.493-1.6976-3.657-2.9688-6.188-2.9688h-10.375z" fill="#3465a4" transform="translate(0 -.48661)"/>
    <path id="rect2396" d="m9.625 5.5134c-3.6694 0-6.625 2.6028-6.625 6.6246 0 4.023 4.2 5.975 7 6.375l7 1c1 1-3 5-3 5l8.281-5.25c2.719-1.75 4.719-3.369 4.719-6.375 0-3.3746-3-7.3746-7-7.3746h-10.375z" fill="url(#linearGradient2404)"/>
    <rect id="rect3461" ry=".40625" height="1" width="14" y="9.0759" x="8" fill="#729fcf"/>
    <rect id="rect3463" ry=".40625" height="1" width="14" y="11.576" x="8" fill="#729fcf"/>
    <rect id="rect3467" ry=".40625" height="1" width="10" y="14.076" x="8" fill="#729fcf"/>
  </g>
  <metadata>
    <rdf:RDF>
      <cc:Work>
        <dc:format>image/svg+xml</dc:format>
        <dc:type rdf:resource="http://purl.org/dc/dcmitype/StillImage"/>
        <cc:license rdf:resource="http://creativecommons.org/licenses/publicdomain/"/>
        <dc:publisher>
          <cc:Agent rdf:about="http://openclipart.org/">
            <dc:title>Openclipart</dc:title>
          </cc:Agent>
        </dc:publisher>
        <dc:title>icon_bulle</dc:title>
        <dc:date>2008-05-26T11:58:24</dc:date>
        <dc:description>clip art, clipart, icon, icon, image, media, note, note, png, public domain, speak, speak, svg, ticket, ticket, </dc:description>
        <dc:source>http://openclipart.org/detail/17021/icon_bulle-by-jean_victor_balin</dc:source>
        <dc:creator>
          <cc:Agent>
            <dc:title>jean_victor_balin</dc:title>
          </cc:Agent>
        </dc:creator>
        <dc:subject>
          <rdf:Bag>
            <rdf:li>clip art</rdf:li>
            <rdf:li>clipart</rdf:li>
            <rdf:li>icon</rdf:li>
            <rdf:li>image</rdf:li>
            <rdf:li>media</rdf:li>
            <rdf:li>note</rdf:li>
            <rdf:li>png</rdf:li>
            <rdf:li>public domain</rdf:li>
            <rdf:li>speak</rdf:li>
            <rdf:li>svg</rdf:li>
            <rdf:li>ticket</rdf:li>
          </rdf:Bag>
        </dc:subject>
      </cc:Work>
      <cc:License rdf:about="http://creativecommons.org/licenses/publicdomain/">
        <cc:permits rdf:resource="http://creativecommons.org/ns#Reproduction"/>
        <cc:permits rdf:resource="http://creativecommons.org/ns#Distribution"/>
        <cc:permits rdf:resource="http://creativecommons.org/ns#DerivativeWorks"/>
      </cc:License>
    </rdf:RDF>
  </metadata>
</svg>
